<?xml version="1.0" encoding="UTF-8" standalone="no"?>
<!-- Generated by graphviz version 12.2.1 (20250203.1708)
 -->

<!-- Title: snakemake_dag Pages: 1 -->

<svg
   width="655pt"
   height="635pt"
   viewBox="0.00 0.00 655.12 634.75"
   version="1.1"
   id="svg53"
   sodipodi:docname="dag.svg"
   inkscape:version="1.4.2 (2aeb623e1d, 2025-05-12)"
   inkscape:export-filename="../2ceab7ed/dag.png"
   inkscape:export-xdpi="200"
   inkscape:export-ydpi="200"
   xmlns:inkscape="http://www.inkscape.org/namespaces/inkscape"
   xmlns:sodipodi="http://sodipodi.sourceforge.net/DTD/sodipodi-0.dtd"
   xmlns="http://www.w3.org/2000/svg"
   xmlns:svg="http://www.w3.org/2000/svg">
  <defs
     id="defs53" />
  <sodipodi:namedview
     id="namedview53"
     pagecolor="#505050"
     bordercolor="#eeeeee"
     borderopacity="1"
     inkscape:showpageshadow="0"
     inkscape:pageopacity="0"
     inkscape:pagecheckerboard="0"
     inkscape:deskcolor="#505050"
     inkscape:document-units="pt"
     showgrid="false"
     inkscape:zoom="0.80433071"
     inkscape:cx="501.65932"
     inkscape:cy="408.4141"
     inkscape:window-width="1534"
     inkscape:window-height="931"
     inkscape:window-x="0"
     inkscape:window-y="0"
     inkscape:window-maximized="1"
     inkscape:current-layer="graph0" />
  <g
     id="graph0"
     class="graph"
     transform="scale(1 1) rotate(0) translate(4 630.75)">
    <title
       id="title1">snakemake_dag</title>
    <polygon
       fill="white"
       stroke="none"
       points="-4,4 -4,-630.75 651.12,-630.75 651.12,4 -4,4"
       id="polygon1" />
    <!-- 0 -->
    <g
       id="node1"
       class="node"
       transform="matrix(0.89799075,0,0,0.89799075,38.13554,-26.681021)">
      <title
         id="title2">0</title>
      <path
         fill="none"
         stroke="#d85656"
         stroke-width="2"
         d="m 259.62,-36 c 0,0 -30,0 -30,0 -6,0 -12,6 -12,12 0,0 0,12 0,12 0,6 6,12 12,12 0,0 30,0 30,0 6,0 12,-6 12,-12 0,0 0,-12 0,-12 0,-6 -6,-12 -12,-12"
         id="path2" />
      <text
         text-anchor="middle"
         x="244.62"
         y="-15.62"
         font-family="sans"
         font-size="10px"
         id="text2">all</text>
    </g>
    <!-- 1 -->
    <g
       id="node2"
       class="node"
       transform="matrix(0.89799075,0,0,0.89799075,38.13554,-26.681021)">
      <title
         id="title3">1</title>
      <path
         fill="none"
         stroke="#56d8d8"
         stroke-width="2"
         d="m 259.62,-108 c 0,0 -30,0 -30,0 -6,0 -12,6 -12,12 0,0 0,12 0,12 0,6 6,12 12,12 0,0 30,0 30,0 6,0 12,-6 12,-12 0,0 0,-12 0,-12 0,-6 -6,-12 -12,-12"
         id="path3" />
      <text
         text-anchor="middle"
         x="244.62"
         y="-87.620003"
         font-family="sans"
         font-size="10px"
         id="text3">multiqc</text>
    </g>
    <!-- 1&#45;&gt;0 -->
    <g
       id="edge1"
       class="edge"
       transform="matrix(0.89799075,0,0,0.89799075,38.13554,-26.681021)">
      <title
         id="title4">1-&gt;0</title>
      <path
         fill="none"
         stroke="#808080"
         stroke-width="2"
         d="m 244.62,-71.34 c 0,6.59 0,14.26 0,21.67"
         id="path4" />
      <polygon
         fill="#808080"
         stroke="#808080"
         stroke-width="2"
         points="241.13,-49.93 248.13,-49.93 244.63,-39.93 "
         id="polygon4" />
    </g>
    <!-- 2 -->
    <g
       id="node3"
       class="node"
       transform="matrix(0.89799075,0,0,0.89799075,38.13554,-26.681021)">
      <title
         id="title5">2</title>
      <path
         fill="none"
         stroke="#56d873"
         stroke-width="2"
         d="m 56.62,-468 c 0,0 -30,0 -30,0 -6,0 -12,6 -12,12 0,0 0,12 0,12 0,6 6,12 12,12 0,0 30,0 30,0 6,0 12,-6 12,-12 0,0 0,-12 0,-12 0,-6 -6,-12 -12,-12"
         id="path5" />
      <text
         text-anchor="middle"
         x="41.619999"
         y="-447.62"
         font-family="sans"
         font-size="10px"
         id="text5">fastqc</text>
    </g>
    <!-- 2&#45;&gt;1 -->
    <g
       id="edge2"
       class="edge"
       transform="matrix(0.89799075,0,0,0.89799075,38.13554,-26.681021)">
      <title
         id="title6">2-&gt;1</title>
      <path
         fill="none"
         stroke="#808080"
         stroke-width="2"
         d="m 43.49,-431.09 c 2.64,26.91 7.13,79.38 7.13,124.09 0,0 0,0 0,74 0,42.03 1.85,59.71 32,89 32.9,31.95 85.33,44.64 121.59,49.68"
         id="path6" />
      <polygon
         fill="#808080"
         stroke="#808080"
         stroke-width="2"
         points="203.42,-90.89 204.27,-97.84 213.77,-93.15 "
         id="polygon6" />
    </g>
    <!-- 3 -->
    <g
       id="node4"
       class="node"
       transform="matrix(0.89799075,0,0,0.89799075,38.13554,-26.681021)">
      <title
         id="title7">3</title>
      <path
         fill="none"
         stroke="#56d88a"
         stroke-width="2"
         d="M 75.25,-617.74835 H 12 c -6,0 -12,6 -12,12 V -588 c 0,6 6,12 12,12 h 63.25 c 6,0 12,-6 12,-12 v -17.74835 c 0,-6 -6,-12 -12,-12"
         id="path7"
         sodipodi:nodetypes="csssssssc" />
      <text
         text-anchor="middle"
         x="43.619999"
         y="-601.24756"
         font-family="sans"
         font-size="10px"
         id="text7">get_fastq</text>
      <text
         text-anchor="middle"
         x="43.619999"
         y="-586.99756"
         font-family="sans"
         font-size="10px"
         id="text8">read: read1</text>
    </g>
    <!-- 3&#45;&gt;2 -->
    <g
       id="edge11"
       class="edge"
       transform="matrix(0.89799075,0,0,0.89799075,38.13554,-26.681021)">
      <title
         id="title9">3-&gt;2</title>
      <path
         fill="none"
         stroke="#808080"
         stroke-width="2"
         d="m 43.29,-575.04 c -0.35,25.78 -0.88,65.75 -1.25,93.32"
         id="path9" />
      <polygon
         fill="#808080"
         stroke="#808080"
         stroke-width="2"
         points="38.54,-482.01 45.54,-481.92 41.91,-471.97 "
         id="polygon9" />
    </g>
    <!-- 7 -->
    <g
       id="node8"
       class="node"
       transform="matrix(0.89799075,0,0,0.89799075,38.13554,-26.681021)">
      <title
         id="title10">7</title>
      <path
         fill="none"
         stroke="#59d856"
         stroke-width="2"
         d="m 113.5,-540 c 0,0 -31.75,0 -31.75,0 -6,0 -12,6 -12,12 0,0 0,12 0,12 0,6 6,12 12,12 0,0 31.75,0 31.75,0 6,0 12,-6 12,-12 0,0 0,-12 0,-12 0,-6 -6,-12 -12,-12"
         id="path10" />
      <text
         text-anchor="middle"
         x="97.620003"
         y="-519.62"
         font-family="sans"
         font-size="10px"
         id="text10">fastp_pe</text>
    </g>
    <!-- 3&#45;&gt;7 -->
    <g
       id="edge15"
       class="edge"
       transform="matrix(0.89799075,0,0,0.89799075,38.13554,-26.681021)">
      <title
         id="title11">3-&gt;7</title>
      <path
         fill="none"
         stroke="#808080"
         stroke-width="2"
         d="m 61.31,-575.04 c 5.35,7.67 11.26,16.14 16.73,23.97"
         id="path11" />
      <polygon
         fill="#808080"
         stroke="#808080"
         stroke-width="2"
         points="75.05,-549.24 80.79,-553.24 83.64,-543.04 "
         id="polygon11" />
    </g>
    <!-- 4 -->
    <g
       id="node5"
       class="node"
       transform="matrix(0.89799075,0,0,0.89799075,38.13554,-26.681021)">
      <title
         id="title12">4</title>
      <path
         fill="none"
         stroke="#56d873"
         stroke-width="2"
         d="m 167.62,-468 c 0,0 -30,0 -30,0 -6,0 -12,6 -12,12 0,0 0,12 0,12 0,6 6,12 12,12 0,0 30,0 30,0 6,0 12,-6 12,-12 0,0 0,-12 0,-12 0,-6 -6,-12 -12,-12"
         id="path12" />
      <text
         text-anchor="middle"
         x="152.62"
         y="-447.62"
         font-family="sans"
         font-size="10px"
         id="text12">fastqc</text>
    </g>
    <!-- 4&#45;&gt;1 -->
    <g
       id="edge3"
       class="edge"
       transform="matrix(0.89799075,0,0,0.89799075,38.13554,-26.681021)">
      <title
         id="title13">4-&gt;1</title>
      <path
         fill="none"
         stroke="#808080"
         stroke-width="2"
         d="m 148.9,-431.16 c -5.28,26.82 -14.28,79.18 -14.28,124.16 0,0 0,0 0,74 0,48.82 41.14,91.04 73.11,116.47"
         id="path13" />
      <polygon
         fill="#808080"
         stroke="#808080"
         stroke-width="2"
         points="205.25,-114.02 209.5,-119.58 215.31,-110.72 "
         id="polygon13" />
    </g>
    <!-- 5 -->
    <g
       id="node6"
       class="node"
       transform="matrix(0.89799075,0,0,0.89799075,38.13554,-26.681021)">
      <title
         id="title14">5</title>
      <path
         fill="none"
         stroke="#56d88a"
         stroke-width="2"
         d="M 183.25,-617.74835 H 120 c -6,0 -12,6 -12,12 V -588 c 0,6 6,12 12,12 h 63.25 c 6,0 12,-6 12,-12 v -17.74835 c 0,-6 -6,-12 -12,-12"
         id="path14"
         sodipodi:nodetypes="csssssssc" />
      <text
         text-anchor="middle"
         x="151.62"
         y="-601.24756"
         font-family="sans"
         font-size="10px"
         id="text14">get_fastq</text>
      <text
         text-anchor="middle"
         x="151.62"
         y="-586.99756"
         font-family="sans"
         font-size="10px"
         id="text15">read: read2</text>
    </g>
    <!-- 5&#45;&gt;4 -->
    <g
       id="edge12"
       class="edge"
       transform="matrix(0.89799075,0,0,0.89799075,38.13554,-26.681021)">
      <title
         id="title16">5-&gt;4</title>
      <path
         fill="none"
         stroke="#808080"
         stroke-width="2"
         d="m 151.79,-575.04 c 0.18,25.78 0.44,65.75 0.63,93.32"
         id="path16" />
      <polygon
         fill="#808080"
         stroke="#808080"
         stroke-width="2"
         points="148.92,-481.94 155.92,-481.99 152.48,-471.97 "
         id="polygon16" />
    </g>
    <!-- 5&#45;&gt;7 -->
    <g
       id="edge16"
       class="edge"
       transform="matrix(0.89799075,0,0,0.89799075,38.13554,-26.681021)">
      <title
         id="title17">5-&gt;7</title>
      <path
         fill="none"
         stroke="#808080"
         stroke-width="2"
         d="m 133.94,-575.04 c -5.35,7.67 -11.26,16.14 -16.73,23.97"
         id="path17" />
      <polygon
         fill="#808080"
         stroke="#808080"
         stroke-width="2"
         points="114.46,-553.24 120.2,-549.24 111.61,-543.04 "
         id="polygon17" />
    </g>
    <!-- 6 -->
    <g
       id="node7"
       class="node"
       transform="matrix(0.89799075,0,0,0.89799075,46.218936,-26.681021)">
      <title
         id="title18">6</title>
      <path
         fill="none"
         stroke="#a7d856"
         stroke-width="2"
         d="m 307.25,-468 c 0,0 -45.25,0 -45.25,0 -6,0 -12,6 -12,12 0,0 0,12 0,12 0,6 6,12 12,12 0,0 45.25,0 45.25,0 6,0 12,-6 12,-12 0,0 0,-12 0,-12 0,-6 -6,-12 -12,-12"
         id="path18" />
      <text
         text-anchor="middle"
         x="284.62"
         y="-447.62"
         font-family="sans"
         font-size="10px"
         id="text18">bwa_mem2</text>
    </g>
    <!-- 6&#45;&gt;1 -->
    <g
       id="edge4"
       class="edge"
       transform="matrix(0.89799075,0,0,0.89799075,38.13554,-26.681021)">
      <title
         id="title19">6-&gt;1</title>
      <path
         fill="none"
         stroke="#808080"
         stroke-width="2"
         d="m 256.94,-431.03 c -33.17,23.96 -84.32,69.71 -84.32,124.03 0,0 0,0 0,74 0,43.43 27.13,87.05 48.09,114.26"
         id="path19" />
      <polygon
         fill="#808080"
         stroke="#808080"
         stroke-width="2"
         points="217.78,-116.8 223.24,-121.17 226.76,-111.18 "
         id="polygon19" />
    </g>
    <!-- 11 -->
    <g
       id="node12"
       class="node"
       transform="matrix(0.89799075,0,0,0.89799075,38.13554,-26.681021)">
      <title
         id="title20">11</title>
      <path
         fill="none"
         stroke="#5673d8"
         stroke-width="2"
         d="m 328.88,-396 c 0,0 -56.5,0 -56.5,0 -6,0 -12,6 -12,12 0,0 0,12 0,12 0,6 6,12 12,12 0,0 56.5,0 56.5,0 6,0 12,-6 12,-12 0,0 0,-12 0,-12 0,-6 -6,-12 -12,-12"
         id="path20" />
      <text
         text-anchor="middle"
         x="300.62"
         y="-375.62"
         font-family="sans"
         font-size="10px"
         id="text20">samtools_sort</text>
    </g>
    <!-- 6&#45;&gt;11 -->
    <g
       id="edge20"
       class="edge"
       transform="matrix(0.89799075,0,0,0.89799075,38.13554,-26.681021)">
      <title
         id="title21">6-&gt;11</title>
      <path
         fill="none"
         stroke="#808080"
         stroke-width="2"
         d="m 288.66,-431.34 c 1.53,6.67 3.31,14.45 5.02,21.95"
         id="path21" />
      <polygon
         fill="#808080"
         stroke="#808080"
         stroke-width="2"
         points="290.22,-408.82 297.04,-410.38 295.86,-399.85 "
         id="polygon21" />
    </g>
    <!-- 7&#45;&gt;1 -->
    <g
       id="edge5"
       class="edge"
       transform="matrix(0.89799075,0,0,0.89799075,38.13554,-26.681021)">
      <title
         id="title22">7-&gt;1</title>
      <path
         fill="none"
         stroke="#808080"
         stroke-width="2"
         d="m 97.42,-503.07 c -0.3,26.94 -0.8,79.45 -0.8,124.07 0,0 0,0 0,146 0,45.37 17.67,57.18 50,89 16.6,16.33 39.24,29.01 58.59,37.88"
         id="path22" />
      <polygon
         fill="#808080"
         stroke="#808080"
         stroke-width="2"
         points="203.7,-102.96 206.49,-109.38 214.27,-102.18 "
         id="polygon22" />
    </g>
    <!-- 7&#45;&gt;6 -->
    <g
       id="edge13"
       class="edge"
       transform="matrix(0.89799075,0,0,0.89799075,38.13554,-26.681021)">
      <title
         id="title23">7-&gt;6</title>
      <path
         fill="none"
         stroke="#808080"
         stroke-width="2"
         d="m 126.43,-510.22 c 29.51,11.05 75.89,28.41 110.81,41.48"
         id="path23" />
      <polygon
         fill="#808080"
         stroke="#808080"
         stroke-width="2"
         points="235.64,-465.6 238.1,-472.15 246.23,-465.37 "
         id="polygon23" />
    </g>
    <!-- 8 -->
    <g
       id="node9"
       class="node"
       transform="matrix(0.89799075,0,0,0.89799075,1.7602496,-26.681021)">
      <title
         id="title24">8</title>
      <path
         fill="none"
         stroke="#88d856"
         stroke-width="2"
         d="m 371.88,-540 c 0,0 -74.5,0 -74.5,0 -6,0 -12,6 -12,12 0,0 0,12 0,12 0,6 6,12 12,12 0,0 74.5,0 74.5,0 6,0 12,-6 12,-12 0,0 0,-12 0,-12 0,-6 -6,-12 -12,-12"
         id="path24" />
      <text
         text-anchor="middle"
         x="334.62"
         y="-519.62"
         font-family="sans"
         font-size="10px"
         id="text24">bwa_mem2_index</text>
    </g>
    <g
       id="node7-6"
       class="node"
       transform="matrix(0.89799075,0,0,0.89799075,144.56695,-26.681021)">
      <title
         id="title18-7">6</title>
      <path
         fill="none"
         stroke="#a7d856"
         stroke-width="2"
         d="m 307.25,-468 c 0,0 -45.25,0 -45.25,0 -6,0 -12,6 -12,12 0,0 0,12 0,12 0,6 6,12 12,12 0,0 45.25,0 45.25,0 6,0 12,-6 12,-12 0,0 0,-12 0,-12 0,-6 -6,-12 -12,-12"
         id="path18-5" />
      <text
         text-anchor="middle"
         x="284.62"
         y="-447.62"
         font-family="sans"
         font-size="10px"
         id="text18-3">bowtie2</text>
    </g>
    <g
       id="node9-5"
       class="node"
       transform="matrix(0.89799075,0,0,0.89799075,100.10825,-26.681021)">
      <title
         id="title24-6">8</title>
      <path
         fill="none"
         stroke="#88d856"
         stroke-width="2"
         d="m 371.88,-540 c 0,0 -74.5,0 -74.5,0 -6,0 -12,6 -12,12 0,0 0,12 0,12 0,6 6,12 12,12 0,0 74.5,0 74.5,0 6,0 12,-6 12,-12 0,0 0,-12 0,-12 0,-6 -6,-12 -12,-12"
         id="path24-2" />
      <text
         text-anchor="middle"
         x="334.62"
         y="-519.62"
         font-family="sans"
         font-size="10px"
         id="text24-9">bowtie2_index</text>
    </g>
    <!-- 8&#45;&gt;6 -->
    <g
       id="edge14"
       class="edge"
       transform="matrix(0.73373128,-0.51771208,0.51771208,0.73373128,326.71799,49.760428)">
      <title
         id="title25">8-&gt;6</title>
      <path
         fill="none"
         stroke="#808080"
         stroke-width="2"
         d="m 316.82034,-495.98492 c -5.17,7.24 -6.10034,8.45492 -11.87034,16.53492"
         id="path25"
         sodipodi:nodetypes="cc" />
      <polygon
         fill="#808080"
         stroke="#808080"
         stroke-width="2"
         points="299.17,-471.37 302.14,-481.54 307.83,-477.47 "
         id="polygon25" />
    </g>
    <g
       id="edge14-2"
       class="edge"
       transform="matrix(0.73373128,-0.51771208,0.51771208,0.73373128,425.06598,49.760412)">
      <title
         id="title25-7">8-&gt;6</title>
      <path
         fill="none"
         stroke="#808080"
         stroke-width="2"
         d="m 316.82034,-495.98492 c -5.17,7.24 -6.10034,8.45492 -11.87034,16.53492"
         id="path25-0"
         sodipodi:nodetypes="cc" />
      <polygon
         fill="#808080"
         stroke="#808080"
         stroke-width="2"
         points="302.14,-481.54 307.83,-477.47 299.17,-471.37 "
         id="polygon25-9" />
    </g>
    <!-- 9 -->
    <g
       id="node10"
       class="node"
       transform="matrix(0.89799075,0,0,0.89799075,38.13554,-26.681021)">
      <title
         id="title26">9</title>
      <path
         fill="none"
         stroke="#56d8a2"
         stroke-width="2"
         d="m 487.25,-619.38 c 0,0 -51.25,0 -51.25,0 -6,0 -12,6 -12,12 0,0 0,12 0,12 0,6 6,12 12,12 0,0 51.25,0 51.25,0 6,0 12,-6 12,-12 0,0 0,-12 0,-12 0,-6 -6,-12 -12,-12"
         id="path26" />
      <text
         text-anchor="middle"
         x="461.62"
         y="-599"
         font-family="sans"
         font-size="10px"
         id="text26">get_genome</text>
    </g>
    <!-- 9&#45;&gt;8 -->
    <g
       id="edge17"
       class="edge"
       transform="matrix(0.89799075,0,0,0.89799075,38.13554,-26.681021)">
      <title
         id="title27">9-&gt;8</title>
      <path
         fill="none"
         stroke="#808080"
         stroke-width="2"
         d="m 432.17,-582.43 c -16.99,10.35 -102.23829,23.84973 -120.79829,35.14973"
         id="path27"
         sodipodi:nodetypes="cc" />
      <polygon
         fill="#808080"
         stroke="#808080"
         stroke-width="2"
         points="366.51,-542.42 373.22,-550.62 376.87,-544.64 "
         id="polygon27"
         transform="translate(-60.010992,-1.6816212)" />
    </g>
    <g
       id="edge17-1"
       class="edge"
       transform="matrix(0.89799075,0,0,0.89799075,41.853093,102.9763)">
      <title
         id="title27-8">9-&gt;8</title>
      <path
         fill="none"
         stroke="#808080"
         stroke-width="2"
         d="m 397.66368,-574.92863 c -27.24885,22.94041 -70.52984,12.15156 -86.29197,27.64836"
         id="path27-7"
         sodipodi:nodetypes="cc" />
      <polygon
         fill="#808080"
         stroke="#808080"
         stroke-width="2"
         points="373.22,-550.62 376.87,-544.64 366.51,-542.42 "
         id="polygon27-9"
         transform="translate(-60.010992,-1.6816212)" />
    </g>
    <g
       id="edge17-6"
       class="edge"
       transform="matrix(0.89799075,0,0,0.89799075,46.218936,-26.681021)">
      <title
         id="title27-0">9-&gt;8</title>
      <path
         fill="none"
         stroke="#808080"
         stroke-width="2"
         d="m 432.17,-582.43 c -16.99,10.35 -27.71921,23.52 -30.7818,35.14973"
         id="path27-6"
         sodipodi:nodetypes="cc" />
      <polygon
         fill="#808080"
         stroke="#808080"
         stroke-width="2"
         points="366.51,-542.42 373.22,-550.62 376.87,-544.64 "
         id="polygon27-2"
         transform="rotate(-48.801763,384.34246,-580.50711)" />
    </g>
    <!-- 12 -->
    <g
       id="node13"
       class="node"
       transform="matrix(0.89799075,0,0,0.89799075,38.13554,-26.681021)">
      <title
         id="title28">12</title>
      <path
         fill="none"
         stroke="#56d8c1"
         stroke-width="2"
         d="m 483.12,-396 c 0,0 -43,0 -43,0 -6,0 -12,6 -12,12 0,0 0,12 0,12 0,6 6,12 12,12 0,0 43,0 43,0 6,0 12,-6 12,-12 0,0 0,-12 0,-12 0,-6 -6,-12 -12,-12"
         id="path28" />
      <text
         text-anchor="middle"
         x="461.62"
         y="-375.62"
         font-family="sans"
         font-size="10px"
         id="text28">gffread_gff</text>
    </g>
    <!-- 9&#45;&gt;12 -->
    <g
       id="edge21"
       class="edge"
       transform="matrix(0.89799075,0,0,0.89799075,38.13554,-26.681021)">
      <title
         id="title29">9-&gt;12</title>
      <path
         fill="none"
         stroke="#808080"
         stroke-width="2"
         d="m 461.62,-582.63 c 0,37.64 0,125.91 0,172.91"
         id="path29" />
      <polygon
         fill="#808080"
         stroke="#808080"
         stroke-width="2"
         points="458.13,-409.85 465.13,-409.85 461.63,-399.85 "
         id="polygon29" />
    </g>
    <!-- 18 -->
    <g
       id="node19"
       class="node"
       transform="matrix(0.89799075,0,0,0.89799075,38.13554,-26.681021)">
      <title
         id="title30">18</title>
      <path
         fill="none"
         stroke="#d88d56"
         stroke-width="2"
         d="m 616.5,-324 c 0,0 -61.75,0 -61.75,0 -6,0 -12,6 -12,12 0,0 0,12 0,12 0,6 6,12 12,12 0,0 61.75,0 61.75,0 6,0 12,-6 12,-12 0,0 0,-12 0,-12 0,-6 -6,-12 -12,-12"
         id="path30" />
      <text
         text-anchor="middle"
         x="585.62"
         y="-303.62"
         font-family="sans"
         font-size="10px"
         id="text30">bcftools_pileup</text>
    </g>
    <!-- 9&#45;&gt;18 -->
    <g
       id="edge29"
       class="edge"
       transform="matrix(0.89799075,0,0,0.89799075,38.13554,-26.681021)">
      <title
         id="title31">9-&gt;18</title>
      <path
         fill="none"
         stroke="#808080"
         stroke-width="2"
         d="m 469.2,-582.46 c 20.71,49.01 78.48,185.7 104.02,246.11"
         id="path31" />
      <polygon
         fill="#808080"
         stroke="#808080"
         stroke-width="2"
         points="569.86,-335.31 576.31,-338.04 576.98,-327.46 "
         id="polygon31" />
    </g>
    <!-- 10 -->
    <g
       id="node11"
       class="node"
       transform="matrix(0.89799075,0,0,0.89799075,38.13554,-26.681021)">
      <title
         id="title32">10</title>
      <path
         fill="none"
         stroke="#56a2d8"
         stroke-width="2"
         d="m 513.12,-324 c 0,0 -103,0 -103,0 -6,0 -12,6 -12,12 0,0 0,12 0,12 0,6 6,12 12,12 0,0 103,0 103,0 6,0 12,-6 12,-12 0,0 0,-12 0,-12 0,-6 -6,-12 -12,-12"
         id="path32" />
      <text
         text-anchor="middle"
         x="461.62"
         y="-303.62"
         font-family="sans"
         font-size="10px"
         id="text32">rseqc_infer_experiment</text>
    </g>
    <!-- 10&#45;&gt;1 -->
    <g
       id="edge6"
       class="edge"
       transform="matrix(0.89799075,0,0,0.89799075,38.13554,-26.681021)">
      <title
         id="title33">10-&gt;1</title>
      <path
         fill="none"
         stroke="#808080"
         stroke-width="2"
         d="m 457.64,-287.04 c -4.96,19.18 -14.93,49.71 -32.02,71.04 -38.81,48.45 -101.32,85.78 -141.78,106.57"
         id="path33" />
      <polygon
         fill="#808080"
         stroke="#808080"
         stroke-width="2"
         points="282.37,-112.61 285.51,-106.36 275.01,-105 "
         id="polygon33" />
    </g>
    <!-- 11&#45;&gt;10 -->
    <g
       id="edge18"
       class="edge"
       transform="matrix(0.89799075,0,0,0.89799075,38.13554,-26.681021)">
      <title
         id="title34">11-&gt;10</title>
      <path
         fill="none"
         stroke="#808080"
         stroke-width="2"
         d="m 341.67,-359.15 c 20.36,8.85 45.19,19.64 66.97,29.11"
         id="path34" />
      <polygon
         fill="#808080"
         stroke="#808080"
         stroke-width="2"
         points="407.03,-326.92 409.83,-333.34 417.6,-326.14 "
         id="polygon34" />
    </g>
    <!-- 13 -->
    <g
       id="node14"
       class="node"
       transform="matrix(0.89799075,0,0,0.89799075,38.13554,-26.681021)">
      <title
         id="title35">13</title>
      <path
         fill="none"
         stroke="#56c1d8"
         stroke-width="2"
         d="m 276.62,-252 c 0,0 -64,0 -64,0 -6,0 -12,6 -12,12 0,0 0,12 0,12 0,6 6,12 12,12 0,0 64,0 64,0 6,0 12,-6 12,-12 0,0 0,-12 0,-12 0,-6 -6,-12 -12,-12"
         id="path35" />
      <text
         text-anchor="middle"
         x="244.62"
         y="-231.62"
         font-family="sans"
         font-size="10px"
         id="text35">rseqc_bam_stat</text>
    </g>
    <!-- 11&#45;&gt;13 -->
    <g
       id="edge22"
       class="edge"
       transform="matrix(0.89799075,0,0,0.89799075,38.13554,-26.681021)">
      <title
         id="title36">11-&gt;13</title>
      <path
         fill="none"
         stroke="#808080"
         stroke-width="2"
         d="m 278.43,-359.21 c -10.01,9.34 -20.88,21.66 -26.81,35.21 -7.97,18.24 -9.71,40.59 -9.46,58.32"
         id="path36" />
      <polygon
         fill="#808080"
         stroke="#808080"
         stroke-width="2"
         points="238.66,-265.75 245.65,-266.04 242.57,-255.91 "
         id="polygon36" />
    </g>
    <!-- 14 -->
    <g
       id="node15"
       class="node"
       transform="matrix(0.89799075,0,0,0.89799075,38.13554,-26.681021)">
      <title
         id="title37">14</title>
      <path
         fill="none"
         stroke="#70d856"
         stroke-width="2"
         d="m 404.5,-252 c 0,0 -85.75,0 -85.75,0 -6,0 -12,6 -12,12 0,0 0,12 0,12 0,6 6,12 12,12 0,0 85.75,0 85.75,0 6,0 12,-6 12,-12 0,0 0,-12 0,-12 0,-6 -6,-12 -12,-12"
         id="path37" />
      <text
         text-anchor="middle"
         x="361.62"
         y="-231.62"
         font-family="sans"
         font-size="10px"
         id="text37">deeptools_coverage</text>
    </g>
    <!-- 11&#45;&gt;14 -->
    <g
       id="edge23"
       class="edge"
       transform="matrix(0.89799075,0,0,0.89799075,38.13554,-26.681021)">
      <title
         id="title38">11-&gt;14</title>
      <path
         fill="none"
         stroke="#808080"
         stroke-width="2"
         d="m 291.11,-359.26 c -8.65,18.72 -18.39,48.61 -6.49,71.26 5.95,11.31 15.53,20.68 25.93,28.23"
         id="path38" />
      <polygon
         fill="#808080"
         stroke="#808080"
         stroke-width="2"
         points="308.32,-257.05 312.17,-262.9 318.61,-254.48 "
         id="polygon38" />
    </g>
    <!-- 15 -->
    <g
       id="node16"
       class="node"
       transform="matrix(0.89799075,0,0,0.89799075,38.13554,-26.681021)">
      <title
         id="title39">15</title>
      <path
         fill="none"
         stroke="#568ad8"
         stroke-width="2"
         d="m 367.88,-324 c 0,0 -62.5,0 -62.5,0 -6,0 -12,6 -12,12 0,0 0,12 0,12 0,6 6,12 12,12 0,0 62.5,0 62.5,0 6,0 12,-6 12,-12 0,0 0,-12 0,-12 0,-6 -6,-12 -12,-12"
         id="path39" />
      <text
         text-anchor="middle"
         x="336.62"
         y="-303.62"
         font-family="sans"
         font-size="10px"
         id="text39">samtools_index</text>
    </g>
    <!-- 11&#45;&gt;15 -->
    <g
       id="edge25"
       class="edge"
       transform="matrix(0.89799075,0,0,0.89799075,38.13554,-26.681021)">
      <title
         id="title40">11-&gt;15</title>
      <path
         fill="none"
         stroke="#808080"
         stroke-width="2"
         d="m 309.71,-359.34 c 3.6,7 7.83,15.22 11.86,23.06"
         id="path40" />
      <polygon
         fill="#808080"
         stroke="#808080"
         stroke-width="2"
         points="318.35,-334.89 324.57,-338.09 326.03,-327.59 "
         id="polygon40" />
    </g>
    <!-- 11&#45;&gt;18 -->
    <g
       id="edge28"
       class="edge"
       transform="matrix(0.89799075,0,0,0.89799075,38.13554,-26.681021)">
      <title
         id="title41">11-&gt;18</title>
      <path
         fill="none"
         stroke="#808080"
         stroke-width="2"
         d="m 341.51,-369.02 c 44.38,8.94 117.55,24.49 188.04,43.72"
         id="path41" />
      <polygon
         fill="#808080"
         stroke="#808080"
         stroke-width="2"
         points="528.27,-322.03 530.13,-328.77 538.84,-322.74 "
         id="polygon41" />
    </g>
    <!-- 12&#45;&gt;10 -->
    <g
       id="edge19"
       class="edge"
       transform="matrix(0.89799075,0,0,0.89799075,38.13554,-26.681021)">
      <title
         id="title42">12-&gt;10</title>
      <path
         fill="none"
         stroke="#808080"
         stroke-width="2"
         d="m 461.62,-359.34 c 0,6.59 0,14.26 0,21.67"
         id="path42" />
      <polygon
         fill="#808080"
         stroke="#808080"
         stroke-width="2"
         points="458.13,-337.93 465.13,-337.93 461.63,-327.93 "
         id="polygon42" />
    </g>
    <!-- 13&#45;&gt;1 -->
    <g
       id="edge7"
       class="edge"
       transform="matrix(0.89799075,0,0,0.89799075,38.13554,-26.681021)">
      <title
         id="title43">13-&gt;1</title>
      <path
         fill="none"
         stroke="#808080"
         stroke-width="2"
         d="m 244.62,-215.02 c 0,23.48 0,64.91 0,93.38"
         id="path43" />
      <polygon
         fill="#808080"
         stroke="#808080"
         stroke-width="2"
         points="241.13,-121.87 248.13,-121.87 244.63,-111.87 "
         id="polygon43" />
    </g>
    <!-- 14&#45;&gt;1 -->
    <g
       id="edge8"
       class="edge"
       transform="matrix(0.89799075,0,0,0.89799075,38.13554,-26.681021)">
      <title
         id="title44">14-&gt;1</title>
      <path
         fill="none"
         stroke="#808080"
         stroke-width="2"
         d="m 346.81,-215.02 c -20.05,24.33 -55.99,67.95 -79.46,96.44"
         id="path44" />
      <polygon
         fill="#808080"
         stroke="#808080"
         stroke-width="2"
         points="264.91,-121.12 270.31,-116.67 261.25,-111.17 "
         id="polygon44" />
    </g>
    <!-- 15&#45;&gt;14 -->
    <g
       id="edge24"
       class="edge"
       transform="matrix(0.89799075,0,0,0.89799075,38.13554,-26.681021)">
      <title
         id="title45">15-&gt;14</title>
      <path
         fill="none"
         stroke="#808080"
         stroke-width="2"
         d="m 342.93,-287.34 c 2.41,6.75 5.23,14.65 7.94,22.23"
         id="path45" />
      <polygon
         fill="#808080"
         stroke="#808080"
         stroke-width="2"
         points="347.55,-263.99 354.15,-266.35 354.21,-255.75 "
         id="polygon45" />
    </g>
    <!-- 16 -->
    <g
       id="node17"
       class="node"
       transform="matrix(0.89799075,0,0,0.89799075,38.13554,-26.681021)">
      <title
         id="title46">16</title>
      <path
         fill="none"
         stroke="#d8a456"
         stroke-width="2"
         d="m 635.12,-180 c 0,0 -55,0 -55,0 -6,0 -12,6 -12,12 0,0 0,12 0,12 0,6 6,12 12,12 0,0 55,0 55,0 6,0 12,-6 12,-12 0,0 0,-12 0,-12 0,-6 -6,-12 -12,-12"
         id="path46" />
      <text
         text-anchor="middle"
         x="607.62"
         y="-159.62"
         font-family="sans"
         font-size="10px"
         id="text46">bcftools_stats</text>
    </g>
    <!-- 16&#45;&gt;1 -->
    <g
       id="edge9"
       class="edge"
       transform="matrix(0.89799075,0,0,0.89799075,38.13554,-26.681021)">
      <title
         id="title47">16-&gt;1</title>
      <path
         fill="none"
         stroke="#808080"
         stroke-width="2"
         d="m 567.19,-146.12 c -2.55,0.76 -5.08,1.48 -7.57,2.12 -97.07,25.15 -214.17,41.22 -274.57,48.48"
         id="path47" />
      <polygon
         fill="#808080"
         stroke="#808080"
         stroke-width="2"
         points="284.88,-99.02 285.7,-92.07 275.36,-94.38 "
         id="polygon47" />
    </g>
    <!-- 17 -->
    <g
       id="node18"
       class="node"
       transform="matrix(0.89799075,0,0,0.89799075,38.13554,-26.681021)">
      <title
         id="title48">17</title>
      <path
         fill="none"
         stroke="#d86e56"
         stroke-width="2"
         d="m 609.38,-252 c 0,0 -47.5,0 -47.5,0 -6,0 -12,6 -12,12 0,0 0,12 0,12 0,6 6,12 12,12 0,0 47.5,0 47.5,0 6,0 12,-6 12,-12 0,0 0,-12 0,-12 0,-6 -6,-12 -12,-12"
         id="path48" />
      <text
         text-anchor="middle"
         x="585.62"
         y="-231.62"
         font-family="sans"
         font-size="10px"
         id="text48">bcftools_call</text>
    </g>
    <!-- 17&#45;&gt;16 -->
    <g
       id="edge26"
       class="edge"
       transform="matrix(0.89799075,0,0,0.89799075,38.13554,-26.681021)">
      <title
         id="title49">17-&gt;16</title>
      <path
         fill="none"
         stroke="#808080"
         stroke-width="2"
         d="m 591.18,-215.34 c 2.12,6.75 4.6,14.65 6.98,22.23"
         id="path49" />
      <polygon
         fill="#808080"
         stroke="#808080"
         stroke-width="2"
         points="594.75,-192.28 601.43,-194.38 601.09,-183.79 "
         id="polygon49" />
    </g>
    <!-- 19 -->
    <g
       id="node20"
       class="node"
       transform="matrix(0.89799075,0,0,0.89799075,38.13554,-26.681021)">
      <title
         id="title50">19</title>
      <path
         fill="none"
         stroke="#d8bc56"
         stroke-width="2"
         d="m 538.38,-180 c 0,0 -53.5,0 -53.5,0 -6,0 -12,6 -12,12 0,0 0,12 0,12 0,6 6,12 12,12 0,0 53.5,0 53.5,0 6,0 12,-6 12,-12 0,0 0,-12 0,-12 0,-6 -6,-12 -12,-12"
         id="path50" />
      <text
         text-anchor="middle"
         x="511.62"
         y="-159.62"
         font-family="sans"
         font-size="10px"
         id="text50">bcftools_view</text>
    </g>
    <!-- 17&#45;&gt;19 -->
    <g
       id="edge30"
       class="edge"
       transform="matrix(0.89799075,0,0,0.89799075,38.13554,-26.681021)">
      <title
         id="title51">17-&gt;19</title>
      <path
         fill="none"
         stroke="#808080"
         stroke-width="2"
         d="m 566.95,-215.34 c -8.17,7.74 -17.95,16.98 -26.99,25.53"
         id="path51" />
      <polygon
         fill="#808080"
         stroke="#808080"
         stroke-width="2"
         points="537.61,-192.4 542.42,-187.31 532.75,-182.98 "
         id="polygon51" />
    </g>
    <!-- 18&#45;&gt;17 -->
    <g
       id="edge27"
       class="edge"
       transform="matrix(0.89799075,0,0,0.89799075,38.13554,-26.681021)">
      <title
         id="title52">18-&gt;17</title>
      <path
         fill="none"
         stroke="#808080"
         stroke-width="2"
         d="m 585.62,-287.34 c 0,6.59 0,14.26 0,21.67"
         id="path52" />
      <polygon
         fill="#808080"
         stroke="#808080"
         stroke-width="2"
         points="582.13,-265.93 589.13,-265.93 585.63,-255.93 "
         id="polygon52" />
    </g>
    <!-- 19&#45;&gt;1 -->
    <g
       id="edge10"
       class="edge"
       transform="matrix(0.89799075,0,0,0.89799075,38.13554,-26.681021)">
      <title
         id="title53">19-&gt;1</title>
      <path
         fill="none"
         stroke="#808080"
         stroke-width="2"
         d="m 472.06,-147.99 c -4.51,1.39 -9.07,2.75 -13.44,3.99 -60.06,17.05 -130.47,33.89 -173.65,43.87"
         id="path53" />
      <polygon
         fill="#808080"
         stroke="#808080"
         stroke-width="2"
         points="284.4,-103.59 285.96,-96.77 275.44,-97.94 "
         id="polygon53" />
    </g>
  </g>
</svg>
